<?xml version="1.0" encoding="utf-8"?>
<!-- Generator: Adobe Illustrator 26.3.1, SVG Export Plug-In . SVG Version: 6.00 Build 0)  -->
<svg version="1.1" id="Layer_1" xmlns="http://www.w3.org/2000/svg" xmlns:xlink="http://www.w3.org/1999/xlink" x="0px" y="0px"
	 viewBox="0 0 40 40" style="enable-background:new 0 0 40 40;" xml:space="preserve">
<polygon style="fill:#FDDCA6;" points="25.2,11.9 25.2,13.1 12.8,13.1 12.8,11.9 11.8,11.9 11.8,2.4 26.5,2.4 26.5,11.9 "/>
<rect x="14.3" y="11.9" style="fill:#FDDCA6;" width="9.4" height="2.3"/>
<rect x="9.6" y="13.4" style="fill:#A7D5FC;" width="18.8" height="14.8"/>
<rect x="10.2" y="28.1" style="fill:#B5B5B5;" width="17.7" height="3.8"/>
<rect x="9.6" y="28" style="fill:#B5B5B5;" width="4.7" height="11.5"/>
<rect x="23.7" y="28" style="fill:#B5B5B5;" width="4.7" height="11.5"/>
<rect x="6.5" y="15.4" style="fill:#A7D5FC;" width="3.1" height="12.4"/>
<rect x="28.4" y="15.4" style="fill:#9BC2E0;" width="3.1" height="12.4"/>
<rect x="6.5" y="26.9" style="fill:#FDDCA6;" width="3.1" height="2.3"/>
<rect x="28.4" y="26.9" style="fill:#FDDCA6;" width="3.1" height="2.3"/>
<line style="fill:#9BC2E0;stroke:#93B4CC;stroke-width:0.2;stroke-miterlimit:10;" x1="9.6" y1="16.5" x2="9.6" y2="26.9"/>
<rect x="14.3" y="0.4" style="fill:#F7EF8B;" width="9.4" height="2.3"/>
<rect x="23.7" y="1.6" style="fill:#F7EF8B;" width="3.1" height="2.3"/>
<rect x="11.2" y="1.6" style="fill:#F7EF8B;" width="3.1" height="2.3"/>
<rect x="25.2" y="2.8" style="fill:#F7EF8B;" width="3.1" height="8.1"/>
<rect x="25.2" y="9.6" style="fill:#F7EF8B;" width="1.6" height="2.3"/>
<rect x="9.6" y="2.8" style="fill:#F7EF8B;" width="3.1" height="3.5"/>
<rect x="20.6" y="7.3" style="fill:#3D3C36;" width="1.6" height="2.3"/>
<rect x="15.3" y="7.3" style="fill:#3D3C36;" width="1.6" height="2.3"/>
</svg>
